<svg width="22" height="22" viewBox="0 0 22 22" fill="none" xmlns="http://www.w3.org/2000/svg">
<g clip-path="url(#clip0_3210_423)">
<path d="M4.50008 9.16666C3.48716 9.16666 2.66675 9.98708 2.66675 11C2.66675 12.0129 3.48716 12.8333 4.50008 12.8333C5.513 12.8333 6.33341 12.0129 6.33341 11C6.33341 9.98708 5.513 9.16666 4.50008 9.16666ZM17.5001 9.16666C16.4872 9.16666 15.6667 9.98708 15.6667 11C15.6667 12.0129 16.4872 12.8333 17.5001 12.8333C18.513 12.8333 19.3334 12.0129 19.3334 11C19.3334 9.98708 18.513 9.16666 17.5001 9.16666ZM11.0001 9.16666C9.98716 9.16666 9.16675 9.98708 9.16675 11C9.16675 12.0129 9.98716 12.8333 11.0001 12.8333C12.013 12.8333 12.8334 12.0129 12.8334 11C12.8334 9.98708 12.013 9.16666 11.0001 9.16666Z" fill="#929EAE"/>
</g>
<defs>
<clipPath id="clip0_3210_423">
<rect width="22" height="22" fill="white"/>
</clipPath>
</defs>
</svg>
