<svg width="20" height="21" viewBox="0 0 20 21" fill="none" xmlns="http://www.w3.org/2000/svg">
<path d="M18.3335 9.641V11.3577C18.3335 11.816 17.9668 12.191 17.5001 12.2077H15.8668C14.9668 12.2077 14.1418 11.5493 14.0668 10.6493C14.0168 10.1243 14.2168 9.63267 14.5668 9.291C14.8751 8.97433 15.3001 8.79102 15.7668 8.79102H17.5001C17.9668 8.80768 18.3335 9.18267 18.3335 9.641Z" fill="#C8EE44"/>
<path d="M17.0583 13.4583H15.8666C14.2833 13.4583 12.95 12.2667 12.8166 10.75C12.7416 9.88334 13.0583 9.01667 13.6916 8.40001C14.225 7.85001 14.9666 7.54167 15.7666 7.54167H17.0583C17.3 7.54167 17.5 7.34167 17.475 7.10001C17.2916 5.07501 15.95 3.69167 13.9583 3.45834C13.7583 3.42501 13.55 3.41667 13.3333 3.41667H5.83329C5.59996 3.41667 5.37496 3.43334 5.15829 3.46667C3.03329 3.73334 1.66663 5.31667 1.66663 7.58334V13.4167C1.66663 15.7167 3.53329 17.5833 5.83329 17.5833H13.3333C15.6666 17.5833 17.275 16.125 17.475 13.9C17.5 13.6583 17.3 13.4583 17.0583 13.4583ZM10.8333 8.62501H5.83329C5.49163 8.62501 5.20829 8.34167 5.20829 8.00001C5.20829 7.65834 5.49163 7.37501 5.83329 7.37501H10.8333C11.175 7.37501 11.4583 7.65834 11.4583 8.00001C11.4583 8.34167 11.175 8.62501 10.8333 8.62501Z" fill="#C8EE44"/>
</svg>
